<svg id="Layer_1" data-name="Layer 1" xmlns="http://www.w3.org/2000/svg" viewBox="0 0 69 69"><path d="M7.45,3.47c0-1.65.87-2.26,2.45-2.22,3,.1,6,.11,9,.16s5.86.22,8.78.14c3.84-.1,4.46.39,4.47,4.21,0,.75,0,1.51-.1,2.26q-.44,6-.89,12l-.06,10.36L31,31,31,32.11l0,.58L31.18,35l-.07,1.1v.57l0,1.07,0,.7.2,1.17.12,1L31,44.11c-.53,2.6.86,3.45,3.16,3.47l2.09.5.18.08.19-.08h.09l.51.43.6-.36L52,49.3l3,.1,1.07.11,1.17.28,1.28-.28,1,.18a6,6,0,0,1,.72,1.86c.05,1.73-.08,3.46-.14,5.19l-.17.8-.25.9-.4,1.47c-1,5.35-1.09,5.35-6.71,5.88C46.13,66.4,39.67,67.23,33.2,68l-9.76.21H9.6c-.33-6.23-.67-12.84-1-19.45L8.52,44.1c-.17-7.48-.32-15-.51-22.45C7.85,15.59,7.64,9.53,7.45,3.47Z" fill="#00904b"/></svg>