<svg id="Layer_1" data-name="Layer 1" xmlns="http://www.w3.org/2000/svg" viewBox="0 0 69 69"><path d="M20.87,68.29c-3.18.07-6.39-.08-9.54.26-3.33.37-4.56-.65-4.6-4.11C6.61,54,6.19,43.6,5.86,33.18c-.32-10-.68-20.06-1-30.09A19,19,0,0,1,5.13.63h5.45l4.47,0,.3.16.32-.11,3.07,0,2.09.06,11.8.25,22.85.59,3.73.11c1.62.23,2.44.84,2.27,2.8-.26,3-.06,6,0,9l-1.54,1-3,.46-2.15.23-4.41.52-2.24.25-3.8.46-2.79.21-4.58.53c-.74,0-1.47,0-2.2,0-6.06.39-6.33.74-5.25,7.12l25.25,2.21c0,3.69-.12,7.09,0,10.49.12,2.64-.86,3.62-3.54,3.81-6.47.44-12.91,1.32-19.38,1.77-2.77.2-3.71,1.16-3.72,4s1.69,3.07,3.73,3.14c1,0,2,0,2.93,0L52.51,51l2.29.09,7.29.9a.72.72,0,0,0,.18.64.59.59,0,0,0,0,.68L62.22,60a.56.56,0,0,0,0,.69c0,.51-.07,1-.1,1.54.05,2.78-1.41,3.59-4.07,3.72-6.56.32-13.11,1-19.66,1.47L36,67.64l-10.71.41-2.24.09-.69,0Z" fill="#e27592"/></svg>