<?xml version="1.0" encoding="utf-8"?>
<!-- Generator: Adobe Illustrator 25.0.1, SVG Export Plug-In . SVG Version: 6.00 Build 0)  -->
<svg version="1.1" id="Layer_1" xmlns="http://www.w3.org/2000/svg" xmlns:xlink="http://www.w3.org/1999/xlink" x="0px" y="0px"
	 viewBox="0 0 50 50" style="enable-background:new 0 0 50 50;" xml:space="preserve">
<style type="text/css">
	.st0{fill:none;}
</style>
<polygon class="st0" points="31,35.1 31.3,35.4 31.3,35.4 "/>
<path d="M30,36.2L10.4,16.5l-1.1-1.1H6.8v4.6l18.5,18.5c0.9-0.2,2.5-0.7,4.7-2.2L30,36.2z"/>
<path d="M31,35.1l0.3,0.3l0,0l0,0c0.7-0.5,1.3-1.1,2-1.9c0.8-0.8,1.4-1.5,2-2.2L15.5,11.4L14.9,12l-2.2,0.7l-0.5,1.9l-0.8,0.8
	L31,35.1L31,35.1L31,35.1z"/>
<path d="M41.5,29l-1.4-1.4c-1.1,1.9-3.4,5.5-5.9,7.7c-2.2,1.9-5.2,3.9-7.1,5.1l0.9,0.9c1.3-0.3,4.3-1.3,8-5
	C39.2,33,40.8,30.4,41.5,29z"/>
<path d="M42.8,30.2c-1.1,1.9-3.4,5.5-5.9,7.7c-2.2,1.9-5.2,3.9-7.1,5.1l5,5c0,0,4.1,0.3,8.5-4.1c4.4-4.4,4.4-8.8,4.4-8.8L42.8,30.2z
	"/>
<path d="M38.9,26.3L19.8,7.2l0,0l0,0h-4.6v1.7l21.4,21C37.7,28.4,38.4,27.2,38.9,26.3z"/>
<polygon points="31,35.1 31,35.1 31,35.1 "/>
<polygon points="4.5,4.2 5.2,13.1 5.6,11.1 8.6,11.8 8.6,9.3 12.8,9.1 11.8,5.7 14.6,5.2 "/>
</svg>
