<?xml version="1.0" encoding="utf-8"?>
<!-- Generator: Adobe Illustrator 23.0.1, SVG Export Plug-In . SVG Version: 6.00 Build 0)  -->
<svg version="1.1" id="Layer_1" xmlns="http://www.w3.org/2000/svg" xmlns:xlink="http://www.w3.org/1999/xlink" x="0px" y="0px"
	 width="50px" height="50px" viewBox="0 0 50 50" enable-background="new 0 0 50 50" xml:space="preserve">
<path fill="#010101" d="M7.8,41.7c-3.5,0.6-5.4,0-5.4,0l0.1-0.5l-0.1,0.2V10.1L4,7.5H0v38.2c0,0,8,0.1,12.8-0.8c4.7-0.9,5-1.3,6.6-1
	c1.7,0.3,1.6,2.3,1.6,2.3h3.8v-2.7c-2.5-0.5-3.4-3.4-7.5-3.6C13.2,39.6,11.3,41.1,7.8,41.7z"/>
<polygon fill="#010101" points="23.2,7.5 23.2,7.5 23.2,7.5 "/>
<g>
	<path fill="#010101" d="M25,43.8c-0.5,0-0.9-0.4-0.9-0.9c0-2.7-3.1-5.7-10-5.7c-7.1,0-9.4,1.4-9.4,1.4c-0.3,0.2-0.6,0.2-0.9,0
		c-0.3-0.2-0.5-0.4-0.5-0.8V6c0-0.2,0.1-0.4,0.2-0.5c0.8-1,4.7-1.5,11-1.5c9.8,0,11.1,3.7,11.2,4.1c0,0.1,0,0.1,0,0.2v34.6
		C25.9,43.4,25.5,43.8,25,43.8z M14.2,35.5c4.9,0,8.1,1.4,10,3.3V8.5c-0.2-0.4-1.8-2.8-9.5-2.8c-6.4,0-8.7,0.6-9.5,0.8v30
		C6.6,36.1,9.4,35.5,14.2,35.5z"/>
</g>
<g>
	<path fill="#010101" d="M2.3,41.7c-0.1,0-0.2,0-0.3,0c-0.4-0.1-0.6-0.5-0.6-0.8V9.2c0-0.2,0-0.3,0.1-0.5l2-3.2
		c0.2-0.3,0.6-0.5,1-0.4C4.9,5.3,5.2,5.6,5.2,6v31.8c0,0.2-0.1,0.3-0.1,0.5l-2,3C2.9,41.6,2.6,41.7,2.3,41.7z M1.9,11.4v28.5
		l1.5-2.3V9.1L1.9,11.4z"/>
</g>
<g>
	<polygon fill="#010101" points="19,29.6 14.2,24.2 9.1,29.4 9.1,4.8 10.8,4.8 10.8,25.1 14.3,21.6 17.2,24.9 17.2,5 19,5 	"/>
</g>
<path fill="#010101" d="M42.2,41.7c3.5,0.6,5.4,0,5.4,0l-0.1-0.5l0.1,0.2V10.1L46,7.5h4v38.2c0,0-8,0.1-12.8-0.8
	c-4.7-0.9-5-1.3-6.6-1c-1.7,0.3-1.6,2.3-1.6,2.3h-3.8v-2.7c2.5-0.5,3.4-3.4,7.5-3.6C36.8,39.6,38.7,41.1,42.2,41.7z"/>
<polygon fill="#010101" points="26.8,6.8 26.8,6.8 26.8,6.8 "/>
<g>
	<path fill="#010101" d="M25,43.8c-0.5,0-0.9-0.4-0.9-0.9V8.3c0-0.1,0-0.2,0-0.2C24.3,7.7,25.5,4,35.3,4c6.4,0,10.3,0.5,11,1.5
		c0.1,0.2,0.2,0.3,0.2,0.5v31.8c0,0.3-0.2,0.6-0.5,0.8s-0.6,0.1-0.9,0c0,0-2.3-1.4-9.4-1.4c-6.8,0-10,2.9-10,5.7
		C25.9,43.4,25.5,43.8,25,43.8z M25.9,8.5v30.2c1.8-1.9,5.1-3.3,10-3.3c4.8,0,7.5,0.6,9,1.1v-30c-0.7-0.3-3-0.8-9.5-0.8
		C27.7,5.7,26.1,8,25.9,8.5z"/>
</g>
<g>
	<path fill="#010101" d="M47.7,41.7c-0.3,0-0.6-0.1-0.7-0.4l-2-3c-0.1-0.1-0.1-0.3-0.1-0.5V6c0-0.4,0.3-0.7,0.6-0.8s0.8,0,1,0.4
		l2,3.2c0.1,0.1,0.1,0.3,0.1,0.5v31.6c0,0.4-0.3,0.7-0.6,0.8C47.9,41.7,47.8,41.7,47.7,41.7z M46.6,37.6l1,1.1V10.2l-1-1.1V37.6z"/>
</g>
<rect x="20.9" y="43.4" fill="#010101" width="8.1" height="4.2"/>
</svg>
