<?xml version="1.0" encoding="utf-8"?>
<!-- Generator: Adobe Illustrator 23.0.1, SVG Export Plug-In . SVG Version: 6.00 Build 0)  -->
<svg version="1.1" id="Layer_1" xmlns="http://www.w3.org/2000/svg" xmlns:xlink="http://www.w3.org/1999/xlink" x="0px" y="0px"
	 width="50px" height="50px" viewBox="0 0 50 50" enable-background="new 0 0 50 50" xml:space="preserve">
<path fill="#010101" d="M25.1,1.4C12.1,1.4,1.5,12,1.5,25s10.6,23.6,23.6,23.6S48.7,38,48.7,25S38.2,1.4,25.1,1.4z M25.1,45.7
	c-2.9,0-5.7-0.6-8.2-1.7l10.7-12.1c0.2-0.3,0.4-0.6,0.4-1v-4.4c0-0.8-0.7-1.5-1.5-1.5c-5.2,0-10.7-5.4-10.8-5.5
	c-0.3-0.3-0.7-0.4-1-0.4H8.9c-0.8,0-1.5,0.7-1.5,1.5v8.9c0,0.6,0.3,1.1,0.8,1.3l5.1,2.5v8.7C8,38.2,4.5,32,4.5,25
	c0-3.2,0.7-6.2,2-8.9h5.4c0.4,0,0.8-0.2,1-0.4l5.9-5.9c0.3-0.3,0.4-0.7,0.4-1V5.2c1.9-0.6,3.9-0.9,5.9-0.9c3.2,0,6.3,0.7,9,2.1
	c-0.2,0.2-0.4,0.3-0.6,0.5C32,8.6,31,10.8,31,13.2s0.9,4.6,2.6,6.3c1.7,1.7,3.9,2.6,6.3,2.6c0.1,0,0.3,0,0.4,0
	c0.6,2.4,1.8,8.6-0.4,17.2c0,0.1,0,0.2,0,0.2C36.2,43.3,30.9,45.7,25.1,45.7L25.1,45.7z"/>
</svg>
