<?xml version="1.0" encoding="utf-8"?>
<!-- Generator: Adobe Illustrator 16.0.1, SVG Export Plug-In . SVG Version: 6.00 Build 0)  -->
<!DOCTYPE svg PUBLIC "-//W3C//DTD SVG 1.1//EN" "http://www.w3.org/Graphics/SVG/1.1/DTD/svg11.dtd">
<svg version="1.1" id="Layer_1" xmlns="http://www.w3.org/2000/svg" xmlns:xlink="http://www.w3.org/1999/xlink" x="0px" y="0px"
	 width="300px" height="300px" viewBox="0 0 300 300" style="enable-background:new 0 0 300 300;" xml:space="preserve">
<path d="M290.625,0c-187.5,0-225,37.5-225,37.5v172.557c-5.625-1.875-12.188-3.807-18.75-3.807C20.625,206.25,0,226.875,0,253.125
	S20.625,300,46.875,300s46.875-20.625,46.875-46.875V79.688c27.188-9.375,77.812-20.681,168.75-22.556v135.056
	c-5.625-2.812-12.188-3.807-18.75-3.807c-26.25,0-46.875,20.625-46.875,46.875s20.625,46.875,46.875,46.875
	s46.875-20.625,46.875-46.875V0z"/>
</svg>
