<?xml version="1.0" encoding="utf-8"?>
<!-- Generator: Adobe Illustrator 23.0.1, SVG Export Plug-In . SVG Version: 6.00 Build 0)  -->
<svg version="1.1" id="Layer_1" xmlns="http://www.w3.org/2000/svg" xmlns:xlink="http://www.w3.org/1999/xlink" x="0px" y="0px"
	 width="50px" height="50px" viewBox="0 0 50 50" enable-background="new 0 0 50 50" xml:space="preserve">
<path fill="#010101" d="M44,4.1c-26.2,0-31.4,5.2-31.4,5.2v24.1c-0.8-0.3-1.7-0.5-2.6-0.5c-3.7,0-6.5,2.9-6.5,6.5s2.9,6.5,6.5,6.5
	s6.5-2.9,6.5-6.5V15.2c3.8-1.3,10.9-2.9,23.5-3.1v18.8c-0.8-0.4-1.7-0.5-2.6-0.5c-3.7,0-6.5,2.9-6.5,6.5s2.9,6.5,6.5,6.5
	s6.5-2.9,6.5-6.5V4.1z"/>
</svg>
