<svg id="Layer_1" data-name="Layer 1" xmlns="http://www.w3.org/2000/svg" viewBox="0 0 69 69"><path d="M49.32,2.51l19,1.34L57,25.89l-4.55,8.8c-2.31,4.22-5.48,8.23-6.72,12.72-1.52,5.5-1.57,11.41-2,17.15-.17,2.51-1.23,3.18-3.67,3.11q-7.29-.21-14.6,0c-2.36.07-3.32-.76-3.38-3C22,61,21.5,57.4,21.61,53.77,22,41.21,15,31.06,9.93,20.25,7.08,14.1,4,8.05.72,1.3c4.3,0,7.78,0,11.26,0,3.94.05,7.89.36,11.83.2,2.82-.11,4.2.68,5,3.4,1.86,6.45,4.1,12.8,6.19,19.19l1.34.21c.89-2.37,1.77-4.75,2.66-7.13.34-.49.69-1,1-1.46l3.79-6.65Q46.58,5.8,49.32,2.51Z" fill="#00904b"/></svg>