<svg id="Layer_1" data-name="Layer 1" xmlns="http://www.w3.org/2000/svg" viewBox="0 0 69 69"><path d="M5.48,14.27a38.77,38.77,0,0,1,9.89-9.44c1.18-.76,2.41-1.44,3.62-2.16a21.24,21.24,0,0,1,2.2-.41c2.46-.2,4.56-2,7.16-1.5l8.16.49,5.24,1.6L51.21,9l2.45,2.82c1.27,2.07,2.7,4.06,3.77,6.23A34.79,34.79,0,0,1,59.1,23.2c0,3.65-.14,7.31-.05,11a12.18,12.18,0,0,1-2.1,7l-.78.83v0L58,45.46l.33.63.28.41,2.21,3.68,3.86,5.76,2.46,4c.63,1,.65,1.86-.52,2.55C64,64,61.42,65.61,58.81,67.17c-1.37.82-2.18.54-3-1a38.29,38.29,0,0,0-3.65-5c-.57-.65-1.15-1.29-1.71-2-1.61-1.94-3.55-3-6.16-2.38a8.08,8.08,0,0,0-2.2,0c-2.19.67-4.29,1.65-6.51,2.17a36.87,36.87,0,0,1-5.59.45l-1.27-.09-2.8,0-6.47-1.88c-2.17-1.19-4.64-2-6.45-3.64a105.18,105.18,0,0,1-7.53-8.1L4,43.24,1,32.55l.78-9.75Zm18,17.91A6.15,6.15,0,0,0,28,35.9c1.9,2,4,.92,6,.35,5.12-1.46,7.92-6.76,6.08-11.41l-3.14-4.1c-1.14-1.81-2.78-2.13-4.85-2.2-2.37-.09-3.92,1.2-5.66,2.29C21.66,23.84,21.68,27,23.52,32.18Z" fill="#00904b"/></svg>