<svg id="Layer_1" data-name="Layer 1" xmlns="http://www.w3.org/2000/svg" viewBox="0 0 69 69"><path d="M2.22,59.94Q2.14,56,2.05,52c-.35-4.71-1-9.42-1-14.13,0-10.57.26-21.14.53-31.71,0-1.18.87-2.34,1.33-3.5l4.85-.48,15.82-.51,3.84.59c4,.37,8,.69,12,1.14C51.05,4.67,62,7.31,68.61,18.32L69,20.13q-.87,5.54-1.73,11.06l-.8,1.44-3.84,5L48.17,47.44c-6.47,1.24-13,2.42-19.41,3.8-.66.14-1.06,1.48-1.57,2.27q-.89,7.07-1.75,14.13l-1.06.17-3.11.27-8,.24c-1.68.09-3.36.1-5,.29-4.74.56-5.94-.45-6-5.14C2.28,62.29,2.24,61.12,2.22,59.94Zm25.84-35c-.08,1.33-.15,2.66-.23,4l0,4.09,3,.77L34.08,33c6.21-2.1,9.74-5.7,8.77-9-1-3.43-8.07-6.56-12.86-5.57-.69.14-1.23,1-1.84,1.51Z" fill="#00904b"/></svg>