<svg id="Layer_1" data-name="Layer 1" xmlns="http://www.w3.org/2000/svg" viewBox="0 0 69 69"><path d="M56.38,52.57c2.73,4.89,5.67,9.71,8.81,15.09-4.11,0-7.43,0-10.76,0-3.77,0-7.54-.29-11.3-.17-2.7.09-4-.54-4.78-2.71-1.77-5.14-3.92-10.19-5.91-15.28l-1.28-.17c-.85,1.89-1.69,3.79-2.54,5.68l-1,1.16L24,61.46,18.74,66.7.62,65.63C4.27,59.69,7.84,53.88,11.4,48.07l4.34-7c1.45-2.2,3.25-4.34,4.66-6.56-2.18-6.3-6.45-12-9.78-18C7.89,11.59,5,6.77,1.81,1.38c4.11,0,7.43,0,10.76,0,3.77,0,7.55.29,11.3.17,2.7-.09,4,.53,4.78,2.71,1.78,5.14,3.92,10.19,5.91,15.28l1.29.17c.84-1.89,1.69-3.78,2.53-5.68l1-1.17L43,7.58l5.26-5.22L66.38,3.41,55.6,21q-2.16,3.51-4.34,7c-1.45,2.21-3.25,4.35-4.66,6.57C48.78,40.85,53.06,46.59,56.38,52.57Z" fill="#e27592"/></svg>