<svg id="Layer_1" data-name="Layer 1" xmlns="http://www.w3.org/2000/svg" viewBox="0 0 69 69"><path d="M29.38,45.9c0-2.86,1-3.83,3.74-4,6.51-.45,13-1.34,19.49-1.78,2.69-.19,3.68-1.17,3.55-3.83-.16-3.41,0-6.84,0-10.55L30.74,23.49c-1.09-6.41-.82-6.76,5.28-7.15.73-.05,1.47,0,2.21,0l4.61-.52,2.8-.21,3.82-.47,2.25-.26,4.44-.51,2.16-.24,3-.46,1.55-1c0-3-.21-6,.05-9,.18-2-.65-2.58-2.28-2.81L56.92.77l-23-.59L22.08-.08,20-.13l-3.08,0-.33.11-.3-.15-4.49,0H6.3A17.53,17.53,0,0,0,6,2.21c.32,10.08.68,20.17,1,30.26.34,10.47.76,20.94.88,31.41,0,3.49,1.28,4.51,4.62,4.15,3.17-.35,6.39-.2,9.59-.27l1.52-.13.7,0,2.25-.09,1.32-.06,1.81-19.71A4.18,4.18,0,0,1,29.38,45.9Z" fill="#00904b"/></svg>