<svg id="Layer_1" data-name="Layer 1" xmlns="http://www.w3.org/2000/svg" viewBox="0 0 69 69"><path d="M17.29.78a4.06,4.06,0,0,0,1.33.61c5,.23,10,.37,15,.6A49,49,0,0,1,51.48,6.68c10.88,4.86,14.79,14.13,16,24.82.69,6.13-1,12.21-3.38,18-2.82,7-8.15,11.5-14.55,14.93-1.16.62-2.69.53-4,.83a2.9,2.9,0,0,0-1.47.64,7.59,7.59,0,0,1-6.1,2.2c-6.18-.1-12.35-.14-18.53,0-4,.08-8,.43-12,.81-3.44.33-4,0-4.1-3.39Q2.49,41.48,1.69,17.43C1.55,13,1.58,8.62,1.48,4.21c-.05-1.89.33-3,2.67-2.87a79.51,79.51,0,0,0,8.17,0A9,9,0,0,0,14.4.78Zm8.07,44.34c6.68.77,12.08-1.56,14.53-6.23,1.82-3.48.84-9-2.16-12.29-3.41-3.68-8.15-5-12.37-3.28v21.8Z" fill="#e27592"/></svg>