<svg id="Layer_1" data-name="Layer 1" xmlns="http://www.w3.org/2000/svg" viewBox="0 0 69 69"><path d="M66.52,61.45c0,.51-.09,1-.12,1.55,0,2.79-1.59,3.61-4.57,3.74-7.38.32-14.73,1-22.09,1.47l-2.67.26-12,.41c-.84,0-1.68.05-2.51.09h-.79l-1.69.14c-3.58.07-7.18-.09-10.72.27-3.74.37-5.12-.66-5.17-4.14,0-4.51-.18-9-.33-13.53C3.7,47.49,34.7,25.2,46.41,16.94h-.08c-1,.07-2.09.13-3.13.21l-5.15.52c-.82,0-1.65,0-2.47,0-2.94.17-4.67.33-5.59,1L2.69,20.54c-.22-5.66-.42-11.31-.63-17A16.88,16.88,0,0,1,2.37,1.1H8.49l5,0,.34.16.35-.11,3.46,0L20,1.29l13.25.25,25.67.59,4.2.12c1.82.23,2.75.83,2.55,2.81a87.12,87.12,0,0,0-.06,9l-.15.08a36.5,36.5,0,0,1,.23,3.74,36.34,36.34,0,0,1,0,4.38L29.78,50.11a9,9,0,0,0,2.57.31c1.1,0,2.19,0,3.29,0l20,1.29,2.57.09,8.2.91a.63.63,0,0,0,.19.63.57.57,0,0,0,0,.69c0,2.24-.07,4.48-.1,6.72A.5.5,0,0,0,66.52,61.45Z" fill="#e27592"/></svg>