<svg id="Layer_1" data-name="Layer 1" xmlns="http://www.w3.org/2000/svg" viewBox="0 0 69 69"><path d="M58.08,59.49c1.89,2.79,1.21,4.13-1.55,5.69-2.58,1.47-5.08,1.35-7.78,1.28s-5.19.3-7.78.32a2.81,2.81,0,0,1-2-.92c-3.46-4.43-6.81-8.92-10.77-14.14-.6,3.19-1.44,5.9-1.55,8.64-.3,7.31-.33,7.41-7.68,7.45-2.86,0-5.72.22-8.56.44-2.36.18-3.14-.38-3.13-2.74,0-5.46.21-10.92.2-16.38Q7.44,26.8,7.27,4.46c0-1.61.19-2.63,2.22-2.57,5,.15,10.11.23,15.16.34V25.62c5.62-7.5,15.81-21.32,16-23.24.32-2.65,19.38-2.82,21-.49C63,3.82,48.91,27.25,39.32,37.06l9.25,7.74a2.38,2.38,0,0,0,.32,1.12C51.9,50.48,55,55,58.08,59.49Z" fill="#e27592"/></svg>