<svg id="Layer_1" data-name="Layer 1" xmlns="http://www.w3.org/2000/svg" viewBox="0 0 69 69"><path d="M23.38,31.83c-1.33,8.93-2.64,17.85-4,26.77a46.44,46.44,0,0,1-1.08,4.95C17,68.2,17,68.17,12.15,68.05,9.92,68,7.7,68,5.47,68c-2.85,0-3.4-.38-3.51-3.32-.1-2.65,0-5.31.06-8Q2.25,43,2.49,29.26c.16-8.19.36-16.39.5-24.58,0-1.43.56-2.31,2.09-2.46s3.1-.45,4.65-.46c2.7,0,5.4.3,8.1.24,3.87-.09,7.75-.23,11.59-.62,4.22-.43,5.45.09,7.09,3.78q4.18,9.36,8.37,18.74a10.86,10.86,0,0,0,1,1.37c.62-4.51,1.22-8.5,1.69-12.51.33-2.87.5-5.76.71-8.64.13-1.72.88-2.6,2.83-2.55,4.05.13,8.1.15,12.15.11,2,0,2.83.29,2.74,2.67-.54,14.67-.74,29.36-1.26,44-.19,5.51-.93,11-1.4,16.48a2.47,2.47,0,0,1-2.77,2.46c-5.93,0-11.85,0-17.78,0-1.73,0-3.45,0-5.17.06a2.2,2.2,0,0,1-2.57-2c-.57-3.38-2.71-6.21-3.1-9.78-.33-3-2.35-5.86-3.37-8.85-1.35-3.94-2.46-8-3.67-11.93-.3-1-.63-2-.94-3Z" fill="#00904b"/></svg>