<?xml version="1.0" encoding="utf-8"?>
<!-- Generator: Adobe Illustrator 23.0.1, SVG Export Plug-In . SVG Version: 6.00 Build 0)  -->
<svg version="1.1" id="Layer_1" xmlns="http://www.w3.org/2000/svg" xmlns:xlink="http://www.w3.org/1999/xlink" x="0px" y="0px"
	 width="50px" height="50px" viewBox="0 0 50 50" enable-background="new 0 0 50 50" xml:space="preserve">
<g>
	<g>
		<path d="M27.4,12.4l3.4-0.1l-6.9,24c-0.4,1.3-1.1,1.6-2.3,1.6l-3.1,0.1l7.1-24.2C25.8,13,26.2,12.5,27.4,12.4z"/>
		<path d="M48.5,26c0,0.9-0.2,1.9-0.5,2.5l-0.1,0.2l-12.2,6.3c-0.1,0.1-0.4,0.2-0.8,0.2c-0.1,0-0.3,0-0.4-0.1
			c-0.3-0.1-0.6-0.4-0.8-0.8c-0.3-0.7-0.4-2.1-0.4-2.6v-0.5l9.4-4.5l-9.4-4.5v-0.5c0-0.6,0.3-2.2,0.6-2.8c0.2-0.4,0.5-0.6,0.7-0.7
			c0.4-0.1,0.7-0.1,1.2,0.2l11.9,6C48,24.7,48.5,25,48.5,26z"/>
		<path d="M15.6,19.2c0.2,0.7,0.4,2.1,0.4,2.6v0.5l-9.4,4.4l9.4,4.5v0.5c0,0.6-0.3,2.1-0.5,2.7c-0.2,0.5-0.5,0.7-0.7,0.8
			c-0.1,0-0.2,0.1-0.4,0.1c-0.2,0-0.5-0.1-0.8-0.2L1.7,29c-0.5-0.2-0.9-0.6-0.9-1.5c0-0.9,0.2-1.9,0.5-2.5l0.1-0.2l12.2-6.3
			c0.4-0.2,0.8-0.3,1.2-0.1C15,18.4,15.4,18.6,15.6,19.2z"/>
	</g>
</g>
</svg>
