<?xml version="1.0" encoding="utf-8"?>
<!-- Generator: Adobe Illustrator 25.0.1, SVG Export Plug-In . SVG Version: 6.00 Build 0)  -->
<svg version="1.1" id="Layer_1" xmlns="http://www.w3.org/2000/svg" xmlns:xlink="http://www.w3.org/1999/xlink" x="0px" y="0px"
	 viewBox="0 0 50 50" style="enable-background:new 0 0 50 50;" xml:space="preserve">
<style type="text/css">
	.st0{fill:#010101;}
</style>
<path class="st0" d="M46.5,47.5c-5.2-0.9-10.2-3.2-14.7-6.1c-3.9-2.6-7.4-5.7-10.7-9l-0.2,0.2l-5.6,4.6c-3.8,3-7.5,6-11.4,8.8
	l-0.4-0.4l14.9-16c-3-3.5-5.7-7.2-8.1-11.2C7.5,13.7,5.2,9,3.7,3.9c3.6,3.9,7,7.8,10.4,11.6c2.8,3.2,5.6,6.4,8.4,9.5l0.6-0.6
	c1.6-1.8,3.1-3.6,4.7-5.4c1.5-1.8,3.2-3.5,4.9-5.1c3.5-3.2,7.2-6.1,11.2-9l0.5,0.3c-0.6,2.5-1.8,4.8-3.1,6.9c-1.3,2.1-2.7,4.1-4.3,6
	c-1.5,1.9-3.2,3.6-5.1,5.2c-1.8,1.6-3.7,3.1-5.5,4.7l-0.7,0.6c2.9,3.1,5.9,6.2,9,9.2C38.4,41.1,42.2,44.3,46.5,47.5z"/>
</svg>
