<svg id="Layer_1" data-name="Layer 1" xmlns="http://www.w3.org/2000/svg" viewBox="0 0 69 69"><path d="M18.64,5.24c.14-1.2.27-2.4.41-3.6l1.84-.24,1,0,2.34-.3a25.76,25.76,0,0,0,4,.8c5.5.23,11,.45,16.51.46,2.79,0,3.73,1.18,3.62,3.84-.16,3.8-.11,7.61-.15,11.41l0,4.51-.13,2.39c0,.59-.07,1.18-.11,1.77-.18.85-.36,1.69-.55,2.54l.34,2.49q-.7,10.83-1.4,21.67c-.27,3.06-.73,6.12-.74,9.18,0,2.59-.77,3.93-3.53,4.09-5.5.32-11,.82-16.47,1.26-2.28.19-3.25-.68-3.38-3.12-.39-6.89-1.05-13.77-1.61-20.65C20.44,40,20.19,36.3,20,32.6Q19.29,18.92,18.64,5.24Z" fill="#e27592"/></svg>