<svg id="Layer_1" data-name="Layer 1" xmlns="http://www.w3.org/2000/svg" viewBox="0 0 69 69"><path d="M.84,2.91l.45-1.57c7-.09,14,0,21-.33,2.74-.12,3.73,1.1,4.27,3.8,1,5,2.24,9.92,3.37,14.88L30.49,22c.22,1.23.45,2.46.67,3.69L31,26l.22.23.15.9L33.7,37.24l.41,1.21.21,1.2.57,2.66.73-.11Q37.49,36,39.39,29.71l1-3.38h0l.57-1.69.09-.24c.48-1.59,1-3.17,1.46-4.76l.08-.19c.22-.78.45-1.55.67-2.33l.06-.18c.17-.47.33-.94.49-1.41C44.85,12.14,46,8.78,47,5.37c.71-2.44,2-3.55,4.36-3.49,5.45.15,10.91.05,16.8.05-1.2,4-2.28,7.55-3.36,11.12a.75.75,0,0,0-.14.7l-.2.18c-.18.76-.37,1.51-.55,2.26-.3,1.39-.6,2.78-.89,4.17l-.42.83a31.4,31.4,0,0,1-.81,4Q56,42.51,50.18,59.75a11.71,11.71,0,0,0-.88,2.3c-.64,4.08-2.82,5.85-6.52,5.89-4,0-8,.37-12,.57l-2-.11-3.29,0-4.78-.2c-1.24-4.11-2.44-8.24-3.74-12.33C14.4,48,11.85,40.22,9.32,32.4Q7.73,26.93,6.15,21.46l0-.31L5.92,21l-.33-1.39Z" fill="#e27592"/></svg>