<svg id="Layer_1" data-name="Layer 1" xmlns="http://www.w3.org/2000/svg" viewBox="0 0 69 69"><path d="M67.84,2.84l.75-.09.08-.5L62.2,1.53a10,10,0,0,0-2.46.53C58,3,55.33,1.79,54.41,4.8c-.7,4.57-1.41,9.13-2.08,13.7-.28,1.94-.45,3.91-.67,5.86l-.76,5.17c-.39,3-.79,5.95-1.18,8.93h-.78L41.62,10.78c-.52-1.31-1.51-2.63-1.48-3.92.07-3.35-1.52-4.24-4-4.3l-6.51.15,0,0-.52.66c-.07.22-.15.43-.23.64l-.28,1.4-.36,1.29L24.15,20.88l-.65,1.95-.37,1.39q-1.86,7.07-3.73,14.13a96.68,96.68,0,0,1-2.65-13Q15,14,13.14,2.72l-.74-.11a31.7,31.7,0,0,0-4.31-.46c-2.39.06-4.76.37-7.14.58l0,9.44L8.55,66.73l0,0,.27.11,4.49.22,6.18.17,1.22.16a5.08,5.08,0,0,1,.87-.05c7.82.91,6.44.5,9.07-6.29L34.24,52l2.25,5.89c.14.55.28,1.1.43,1.64l.42,1c.4,1.35.8,2.7,1.21,4l1.77,2.67h8.35l2.19-.1,1.34-.21,6.57-.1,9-58.93,0-1Z" fill="#e27592"/></svg>