<svg id="Layer_1" data-name="Layer 1" xmlns="http://www.w3.org/2000/svg" viewBox="0 0 69 69"><path d="M44.12,2.82c1.49.69,3,1.35,4.46,2.08,3.5,1.75,7.19,3.23,10.43,5.38,5.54,3.66,8.34,8.85,7.08,15.71l-5.62,10L56.7,39l-1.78,1.17c-3.81,1.76-3.81,2.22,0,6.16l1,2L58.1,50,63,57.63c1.3,1.53,2.59,3.07,3.88,4.6L69,67.58l-8,1.34-4.43-.6-3.65.78c-.82-.23-1.73-.79-2.46-.62a14.15,14.15,0,0,1-11.25-2.06l-1.47-2.88c-.31-.49-.61-1-.92-1.46l0,0-.69-.78,0,0L34.7,59.59l0-.07L31.47,55.2l-.13-.12-.63-.64-.11-.13-3.66-5.19-1.39.53v7.08l-.07,1.53c-.25,2.83-.51,5.65-.76,8.47a.69.69,0,0,0-.33.57l-2.27.37h-3L8.35,68l-1.6.55a.47.47,0,0,0-.51-.07L1.57,65.84,1.39,51.21l-.7-1.65.46-2.2c.17-.59.33-1.18.5-1.76a32.65,32.65,0,0,0,.59-4.46c0-10.47-.07-20.94,0-31.41,0-2.78.47-5.55.72-8.32L6.74.79l5.5-.13,7.55.09,1.68.06,15.1,1.33L38.86,2ZM41.56,22.87c-1.18-3.78-4.41-5.48-9.69-5.39-2.67.05-4,1.21-4.22,3.83-.26,3.18-.5,6.36-.83,9.53-.28,2.8.91,3.47,3.38,2.54,4.59.14,7.91-2.2,10.28-5.8C41.31,26.32,41.23,24.46,41.56,22.87Z" fill="#00904b"/></svg>