<svg id="Layer_1" data-name="Layer 1" xmlns="http://www.w3.org/2000/svg" viewBox="0 0 69 69"><path d="M50.63,67.83l-9.35,1.22-5.05.13-5.16-.93-.05,0a37.89,37.89,0,0,1-16.76-8.65,5.21,5.21,0,0,0-1.89-.64l-.57-1-.39-1c-1.16-1.75-2.32-3.49-3.47-5.24L5.37,45.58,4.05,40.19l-.13-1.86c-.07-2.68-.29-5.36-.19-8,.19-5.26,2-10.08,4.43-14.69l.94-1.49L16.58,7l.48-.36v0L19.5,5.44,22.24,4l2.66-.8L34.74,1a5.43,5.43,0,0,0,.69,0,54,54,0,0,1,17.66.73c2.45.57,4.92,1.1,7.37,1.64l.57.26L62.36,4c3,.94,3.11,1.12,2.28,4l-2.25,8c-.25.64-.53,1.27-.74,1.93C60,23.06,60,23.06,54.8,22l-1.34.06-5.28-.81-3.08,0-2.75.45-4.68,1.43-1.47.67c-3,1.68-4.24,4.55-5.07,7.66,0,1.48-.07,3-.1,4.44.31,1,.61,2.08.92,3.12,1.09,3.74,4.32,4.6,7.48,5.57,2.8,1.75,5.85,1.43,8.9,1.08,1.73-.53,3.44-1.08,5.18-1.59,2.33-.67,4.67-1.31,7-2l1.76.08h0q1.23,3.47,2.45,6.93c.74,2,1.49,4,2.23,5.93l.41,1.17,0-.06c.13.49.25,1,.38,1.49,0,1.5,1.31,3.1-.35,4.47l-5.07,2-.89.39-.57.1L56.75,66l-4.24,1.25Z" fill="#00904b"/></svg>