<svg id="Layer_1" data-name="Layer 1" xmlns="http://www.w3.org/2000/svg" viewBox="0 0 69 69"><path d="M1.54,35.7l.19-1.37Q2,18.72,2.32,3.09l2.92-.82,3.58-.16.27.11.27-.11,4.47-.22L20,1.73l1.21-.17a5.08,5.08,0,0,0,.87.05c7.79-.92,6.42-.5,9,6.36,1.1,2.84,2.19,5.68,3.54,9.15l2.24-6,.43-1.66.42-1,1.2-4.09,1.77-2.7H49l2.18.1,1.34.21,11.84.19,1.19.16a13.57,13.57,0,0,1,1.22,3A36.43,36.43,0,0,1,67,10l.36,12.79.18,10.18v3.4l-.11,2.73.06.67L67.6,41c0,3,.05,6,.07,9l.18,1.29c.09,3.84.17,7.68.26,11.53v4l3,.36-8.65,1A9.06,9.06,0,0,1,60,67.56c-1.77-.91-4.39.27-5.31-2.77C54,60.18,53.33,55.57,52.67,51c-.29-2-.46-4-.68-5.93l-.75-5.22-1.18-9h-.78L42,58.75c-.52,1.32-1.5,2.66-1.47,4,.07,3.39-1.51,4.28-4,4.34l-6.49-.14,0,0-.52-.66-.23-.65L29,64.15l-.36-1.29q-2-7.17-4-14.32l-.65-2-.36-1.4L19.85,30.88a100,100,0,0,0-2.63,13.17q-1.78,11.42-3.6,22.84l-.74.11a29.93,29.93,0,0,1-4.29.47c-2.38-.07-4.75-.38-7.12-.58q0-7.5.05-15c0-2,0-4,0-6,0-.71.08-1.41.13-2.12Z" fill="#e27592"/></svg>