<svg id="Layer_1" data-name="Layer 1" xmlns="http://www.w3.org/2000/svg" viewBox="0 0 69 69"><path d="M27.77,1.05c8.83.1,17.66.16,26.49.31,6.84.12,9.34,3.54,7.25,10.54A26.79,26.79,0,0,0,61,17.09c-.92,3.67-2.51,4.84-6.67,4.37-5.74-.65-11.68.57-17.53,1C28.46,26.15,24.92,32,27.05,39s6.91,8.63,12.6,7.23C38.82,42.41,38,38.79,37.23,35l15.33-2.55a7.32,7.32,0,0,0,2.12.13C63,30.66,66.22,35,66.5,43c.32,6.39.85,12.78.84,19.17,0,1.92-1.51,3.85-2.33,5.78-3.7-.5-8.08.13-11-1.76-4.08-2.68-6.55-1.44-9.46,1.14-13.31,3.76-25.18.24-36.15-7.83L7.18,58.36l.07.07Q4.45,50.3,1.66,42.18L3,23.78l3-7.26c.9-1.3,1.79-2.61,2.68-3.91Z" fill="#e27592"/></svg>